<svg width="316" height="247" viewBox="0 0 316 247" fill="none" xmlns="http://www.w3.org/2000/svg">
<path d="M29 173.621C71.5486 -50.2628 212 165.621 212 165.621L29 173.621Z" stroke="black" stroke-width="2"/>
<path d="M51 172L137 86" stroke="black" stroke-width="3"/>
<path d="M63 87.213L154.055 167.842" stroke="black" stroke-width="3"/>
<path d="M51 104.213L128 168" stroke="black" stroke-width="3"/>
<path d="M209 164H281.057" stroke="black" stroke-width="7"/>
<path d="M79 76.4638L180 166" stroke="black" stroke-width="3"/>
<path d="M99 72.213L200 166" stroke="black" stroke-width="3"/>
<path d="M41 123.213L105 169" stroke="black" stroke-width="3"/>
<path d="M36 144.213L73 171" stroke="black" stroke-width="3"/>
<path d="M105 171L166 108" stroke="black" stroke-width="3"/>
<path d="M137 168L180 123" stroke="black" stroke-width="3"/>
<path d="M160 168L190 136" stroke="black" stroke-width="3"/>
<path d="M32 161L118 76" stroke="black" stroke-width="3"/>
<path d="M73 171L149 94" stroke="black" stroke-width="3"/>
</svg>
